<svg viewBox="0 0 200 200" fill="none" xmlns="http://www.w3.org/2000/svg">
    <!-- Hood -->
    <path d="M50 80 Q100 10, 150 80 T150 160 Q100 190, 50 160 T50 80" fill="black" stroke="black" stroke-width="4" />

    <!-- Cat Face -->
    <circle cx="100" cy="100" r="40" fill="white" stroke="black" stroke-width="4" />

    <!-- Cat Ears (partially hidden by hood) -->
    <path d="M75 70 L85 40 L95 70 Z" fill="black" stroke="black" stroke-width="4" />
    <path d="M125 70 L115 40 L105 70 Z" fill="black" stroke="black" stroke-width="4" />

    <!-- Glasses Frame -->
    <rect x="75" y="90" width="20" height="15" stroke="black" stroke-width="3" fill="none" />
    <rect x="105" y="90" width="20" height="15" stroke="black" stroke-width="3" fill="none" />
    <line x1="95" y1="97" x2="105" y2="97" stroke="black" stroke-width="3" />
    <!-- Bridge -->

    <!-- Eyes (surprised look) -->
    <circle cx="85" cy="100" r="5" fill="black" />
    <circle cx="115" cy="100" r="5" fill="black" />
    <circle cx="85" cy="100" r="2" fill="white" />
    <!-- Reflection -->
    <circle cx="115" cy="100" r="2" fill="white" />
    <!-- Reflection -->

    <!-- Open Mouth (Surprised) -->
    <ellipse cx="100" cy="120" rx="6" ry="8" fill="black" />

    <!-- Hood Opening -->
    <path d="M60 90 Q100 50, 140 90 T140 150 Q100 170, 60 150 T60 90" fill="none" stroke="black" stroke-width="4" />
</svg>